<svg viewBox="0 0 24 24" fill="none" xmlns="http://www.w3.org/2000/svg">
<path d="M8 6C8 4.89543 8.89543 4 10 4H14C15.1046 4 16 4.89543 16 6V14H8V6Z" fill="#3B82F6"/>
<path d="M8 14V17C8 18.1046 8.89543 19 10 19H14C15.1046 19 16 18.1046 16 17V14H8Z" fill="#60A5FA"/>
<circle cx="10.5" cy="8.5" r="1.5" fill="white"/>
<circle cx="13.5" cy="8.5" r="1.5" fill="white"/>
<path d="M10 12C10 11.4477 10.4477 11 11 11H13C13.5523 11 14 11.4477 14 12C14 12.5523 13.5523 13 13 13H11C10.4477 13 10 12.5523 10 12Z" fill="white"/>
<rect x="5" y="15" width="2" height="4" rx="1" fill="#93C5FD"/>
<rect x="17" y="15" width="2" height="4" rx="1" fill="#93C5FD"/>
</svg>