<svg version="1.1" id="Layer_1" xmlns="http://www.w3.org/2000/svg" xmlns:xlink="http://www.w3.org/1999/xlink" x="0px" y="0px"
	 width="100%" viewBox="0 0 512 512" enable-background="new 0 0 512 512" xml:space="preserve">
<path fill="#9333ea" opacity="1.000000" stroke="none" 
	d="
M429.000000,513.000000 
	C314.645782,513.000000 200.291550,513.000000 85.368042,512.645325 
	C77.102943,510.203278 70.936546,501.635284 70.959961,493.704773 
	C71.055885,461.217682 71.000000,428.730133 71.000000,396.242767 
	C71.000000,394.622253 71.000000,393.001709 71.000000,391.000000 
	C68.979256,391.000000 67.340523,390.849518 65.736717,391.022644 
	C42.577648,393.522736 29.067860,378.753448 29.653173,355.003845 
	C30.822653,307.551117 30.221077,260.047668 29.868261,212.568741 
	C29.759277,197.902618 42.944386,183.017502 58.500813,183.962585 
	C62.587170,184.210831 66.701416,184.000000 71.000000,184.000000 
	C71.000000,181.617599 71.000000,179.806839 71.000000,177.996094 
	C71.000000,126.682709 71.179932,75.368187 70.858322,24.056818 
	C70.788399,12.900749 75.381409,5.678407 85.000000,1.000000 
	C169.020889,1.000000 253.041794,1.000000 337.615936,1.339365 
	C341.588379,4.760186 345.338654,7.549097 348.366608,10.976206 
	C358.769745,22.750786 368.855621,34.805016 379.187195,46.643757 
	C387.397095,56.051266 395.837311,65.257408 404.089691,74.628311 
	C415.792358,87.917038 427.563934,101.151131 438.945862,114.710938 
	C441.146118,117.332207 442.753662,121.321030 442.822937,124.715996 
	C443.196869,143.036285 442.994843,161.368210 443.010040,179.696106 
	C443.011230,181.115189 443.155396,182.534134 443.235687,184.000000 
	C448.044525,184.000000 452.374725,184.055252 456.703125,183.989960 
	C471.503845,183.766739 484.029541,197.552673 484.017578,211.274673 
	C483.973358,262.092926 484.058197,312.911377 483.963165,363.729492 
	C483.936035,378.239777 471.338684,390.824646 456.537811,390.992218 
	C452.100616,391.042450 447.662323,391.000000 443.000000,391.000000 
	C443.000000,393.187012 443.000000,394.828003 443.000000,396.468964 
	C443.000000,427.626404 442.731842,458.787415 443.142944,489.939423 
	C443.290222,501.101349 438.620605,508.321533 429.000000,513.000000 
M92.000000,123.500000 
	C92.000000,143.593979 92.000000,163.687958 92.000000,183.732132 
	C202.294418,183.732132 312.018585,183.732132 421.730957,183.732132 
	C421.730957,167.059341 421.730957,150.655853 421.730957,134.000000 
	C393.328308,134.000000 365.187897,133.670120 337.062958,134.184921 
	C327.642761,134.357346 322.918945,129.707520 322.956390,119.945465 
	C323.074615,89.118294 323.000000,58.290382 323.000000,27.462757 
	C323.000000,25.701874 323.000000,23.940990 323.000000,22.291107 
	C245.667496,22.291107 168.938904,22.291107 92.000000,22.291107 
	C92.000000,55.887848 92.000000,89.193924 92.000000,123.500000 
M358.500000,391.000000 
	C269.741852,391.000000 180.983688,391.000000 92.285828,391.000000 
	C92.285828,423.305176 92.285828,455.042694 92.285828,486.716583 
	C202.305893,486.716583 312.039917,486.716583 421.714172,486.716583 
	C421.714172,454.694824 421.714172,422.957275 421.714172,391.000000 
	C400.786072,391.000000 380.143036,391.000000 358.500000,391.000000 
M137.962341,273.716919 
	C138.308121,275.458649 138.555786,277.226715 139.014542,278.938141 
	C144.834579,300.650848 150.735519,322.342041 156.470886,344.076996 
	C157.291382,347.186371 158.715134,348.246033 161.931290,348.078674 
	C167.415405,347.793243 172.931793,347.839172 178.421371,348.066071 
	C181.275482,348.184021 182.296524,347.011230 183.061676,344.447449 
	C187.279266,330.315399 191.690262,316.241119 196.014282,302.140717 
	C200.526550,287.426544 205.081573,272.724884 209.483429,257.977631 
	C211.362717,251.681549 212.900986,245.283691 214.594223,238.932083 
	C215.990555,247.061172 216.669189,255.007263 216.960510,262.967529 
	C217.439148,276.045654 217.681427,289.132599 217.996017,302.216492 
	C218.346634,316.799255 218.660675,331.382843 219.013535,345.965515 
	C219.037216,346.943878 218.963135,348.112823 219.454300,348.843903 
	C220.064560,349.752289 221.206589,350.891357 222.135742,350.906555 
	C231.400757,351.058167 240.669235,350.998535 250.327072,350.998535 
	C249.792831,348.449036 249.152496,346.574249 249.040634,344.668457 
	C248.297287,332.003662 247.687225,319.331116 246.994156,306.663269 
	C246.355621,294.992279 245.572250,283.328491 245.024170,271.653503 
	C244.265350,255.489166 243.723999,239.314621 242.959778,223.150589 
	C242.769745,219.130981 242.081421,215.134964 241.607452,211.000000 
	C232.704819,211.000000 224.053970,211.000000 215.403122,211.000000 
	C199.531021,211.000000 199.534348,211.000763 195.995758,226.595612 
	C195.712402,227.844360 195.365250,229.080368 195.003708,230.309357 
	C189.572006,248.773224 184.091080,267.222748 178.715958,285.703033 
	C176.552856,293.140015 174.617905,300.643372 172.431015,308.659332 
	C163.590363,275.565399 154.964340,243.274948 146.413147,211.264557 
	C131.715576,211.264557 117.951981,211.264557 104.208549,211.264557 
	C103.457336,219.676331 102.586288,227.814377 102.032341,235.973969 
	C100.929344,252.221024 99.944786,268.476715 99.023361,284.735199 
	C98.556190,292.978424 98.376335,301.237549 97.984642,309.485565 
	C97.703583,315.403961 97.372467,321.322632 96.909126,327.229034 
	C96.298210,335.016632 95.535934,342.792389 94.818314,350.800995 
	C104.770905,350.800995 114.182838,350.800995 123.503197,350.800995 
	C124.010239,342.904633 124.594574,335.208008 124.979958,327.501434 
	C125.713348,312.835754 126.448639,298.168488 126.966576,283.494202 
	C127.457588,269.583099 127.668388,255.662155 128.017807,241.745926 
	C128.031921,241.183273 128.203629,240.624588 128.301926,240.064056 
	C128.840317,239.985870 129.378723,239.907684 129.917130,239.829498 
	C132.444122,250.885834 134.971100,261.942169 137.962341,273.716919 
M322.201691,326.008881 
	C320.971008,326.339111 319.754120,326.887299 318.507507,326.966278 
	C303.811768,327.897919 289.606476,326.046936 276.277405,319.065674 
	C274.164520,327.462616 272.105591,335.645203 269.968048,344.140198 
	C272.466492,345.178680 274.639618,346.204010 276.894012,346.998932 
	C290.048126,351.637085 303.532074,353.297089 317.477081,352.062439 
	C332.277924,350.751984 345.952972,347.061340 356.090759,335.338501 
	C365.655212,324.278595 368.721313,307.326813 362.289398,293.741425 
	C357.363464,283.336914 348.782471,276.860870 338.807495,272.030273 
	C329.456757,267.501953 319.873871,263.454926 310.485352,259.001678 
	C305.535614,256.653931 302.792694,252.661499 302.994751,246.954880 
	C303.191284,241.403091 306.249969,237.974777 311.160400,235.978455 
	C316.742218,233.709198 322.452911,232.772507 328.503052,233.960617 
	C336.614380,235.553452 344.779663,236.871689 353.425812,238.396713 
	C355.303436,231.755951 357.564514,223.758942 359.933807,215.379166 
	C357.153290,214.294922 354.293121,212.829300 351.256592,212.058563 
	C340.385742,209.299332 329.520264,207.705170 318.090027,208.798080 
	C303.598389,210.183716 290.788635,214.387924 281.050385,225.548859 
	C273.118561,234.639481 270.433014,245.286514 272.653809,257.239929 
	C275.191925,270.901215 284.645813,278.857574 295.904968,284.859467 
	C305.077301,289.748932 314.879242,293.447113 324.334534,297.819427 
	C330.138947,300.503448 334.015930,304.500336 334.085632,311.581635 
	C334.163605,319.510315 329.241333,323.123383 322.201691,326.008881 
M399.516724,211.000000 
	C395.745636,211.000000 391.974548,211.000000 388.280609,211.000000 
	C388.280609,257.966766 388.280609,304.367920 388.280609,350.716370 
	C398.635712,350.716370 408.707764,350.716370 418.718292,350.716370 
	C418.718292,304.031006 418.718292,257.629883 418.718292,211.000000 
	C412.462341,211.000000 406.486359,211.000000 399.516724,211.000000 
z"/>

</svg>